<mxfile host="app.diagrams.net" agent="Mozilla/5.0 (Macintosh; Intel Mac OS X 10_15_7) AppleWebKit/537.36 (KHTML, like Gecko) Chrome/129.0.0.0 Safari/537.36" version="24.7.17">
  <diagram name="Page-1" id="CB2QZfmxh5FjKiM8pREs">
    <mxGraphModel dx="954" dy="646" grid="1" gridSize="10" guides="1" tooltips="1" connect="1" arrows="1" fold="1" page="1" pageScale="1" pageWidth="827" pageHeight="1169" math="0" shadow="0">
      <root>
        <mxCell id="0" />
        <mxCell id="1" parent="0" />
        <mxCell id="9vBNabVuWrEEJc_SQrMS-5" style="rounded=0;orthogonalLoop=1;jettySize=auto;html=1;exitX=1;exitY=1;exitDx=0;exitDy=0;entryX=0;entryY=0;entryDx=0;entryDy=0;" edge="1" parent="1" source="9vBNabVuWrEEJc_SQrMS-1" target="9vBNabVuWrEEJc_SQrMS-2">
          <mxGeometry relative="1" as="geometry" />
        </mxCell>
        <mxCell id="9vBNabVuWrEEJc_SQrMS-1" value="Weather" style="ellipse;whiteSpace=wrap;html=1;" vertex="1" parent="1">
          <mxGeometry x="340" y="40" width="80" height="50" as="geometry" />
        </mxCell>
        <mxCell id="9vBNabVuWrEEJc_SQrMS-14" style="rounded=0;orthogonalLoop=1;jettySize=auto;html=1;exitX=0;exitY=1;exitDx=0;exitDy=0;entryX=1;entryY=0;entryDx=0;entryDy=0;" edge="1" parent="1" source="9vBNabVuWrEEJc_SQrMS-2" target="9vBNabVuWrEEJc_SQrMS-10">
          <mxGeometry relative="1" as="geometry" />
        </mxCell>
        <mxCell id="9vBNabVuWrEEJc_SQrMS-15" style="rounded=0;orthogonalLoop=1;jettySize=auto;html=1;exitX=1;exitY=1;exitDx=0;exitDy=0;entryX=0;entryY=0;entryDx=0;entryDy=0;" edge="1" parent="1" source="9vBNabVuWrEEJc_SQrMS-2" target="9vBNabVuWrEEJc_SQrMS-11">
          <mxGeometry relative="1" as="geometry" />
        </mxCell>
        <mxCell id="9vBNabVuWrEEJc_SQrMS-2" value="Sunny" style="ellipse;whiteSpace=wrap;html=1;" vertex="1" parent="1">
          <mxGeometry x="510" y="130" width="80" height="50" as="geometry" />
        </mxCell>
        <mxCell id="9vBNabVuWrEEJc_SQrMS-12" style="rounded=0;orthogonalLoop=1;jettySize=auto;html=1;exitX=0;exitY=1;exitDx=0;exitDy=0;entryX=1;entryY=0;entryDx=0;entryDy=0;" edge="1" parent="1" source="9vBNabVuWrEEJc_SQrMS-3" target="9vBNabVuWrEEJc_SQrMS-8">
          <mxGeometry relative="1" as="geometry" />
        </mxCell>
        <mxCell id="9vBNabVuWrEEJc_SQrMS-13" style="rounded=0;orthogonalLoop=1;jettySize=auto;html=1;exitX=1;exitY=1;exitDx=0;exitDy=0;entryX=0;entryY=0;entryDx=0;entryDy=0;" edge="1" parent="1" source="9vBNabVuWrEEJc_SQrMS-3" target="9vBNabVuWrEEJc_SQrMS-9">
          <mxGeometry relative="1" as="geometry" />
        </mxCell>
        <mxCell id="9vBNabVuWrEEJc_SQrMS-3" value="Rainy" style="ellipse;whiteSpace=wrap;html=1;" vertex="1" parent="1">
          <mxGeometry x="180" y="130" width="80" height="50" as="geometry" />
        </mxCell>
        <mxCell id="9vBNabVuWrEEJc_SQrMS-4" style="rounded=0;orthogonalLoop=1;jettySize=auto;html=1;exitX=0;exitY=1;exitDx=0;exitDy=0;entryX=0.7;entryY=0.08;entryDx=0;entryDy=0;entryPerimeter=0;" edge="1" parent="1" source="9vBNabVuWrEEJc_SQrMS-1" target="9vBNabVuWrEEJc_SQrMS-3">
          <mxGeometry relative="1" as="geometry" />
        </mxCell>
        <mxCell id="9vBNabVuWrEEJc_SQrMS-6" value="P = 0.6" style="text;html=1;align=center;verticalAlign=middle;whiteSpace=wrap;rounded=0;" vertex="1" parent="1">
          <mxGeometry x="450" y="80" width="60" height="30" as="geometry" />
        </mxCell>
        <mxCell id="9vBNabVuWrEEJc_SQrMS-7" value="P = 0.4" style="text;html=1;align=center;verticalAlign=middle;whiteSpace=wrap;rounded=0;" vertex="1" parent="1">
          <mxGeometry x="240" y="90" width="60" height="30" as="geometry" />
        </mxCell>
        <mxCell id="9vBNabVuWrEEJc_SQrMS-25" style="rounded=0;orthogonalLoop=1;jettySize=auto;html=1;exitX=0.5;exitY=1;exitDx=0;exitDy=0;entryX=0.5;entryY=0;entryDx=0;entryDy=0;" edge="1" parent="1" source="9vBNabVuWrEEJc_SQrMS-8" target="9vBNabVuWrEEJc_SQrMS-24">
          <mxGeometry relative="1" as="geometry" />
        </mxCell>
        <mxCell id="9vBNabVuWrEEJc_SQrMS-8" value="Heavy&lt;div&gt;Traffic&lt;/div&gt;" style="ellipse;whiteSpace=wrap;html=1;" vertex="1" parent="1">
          <mxGeometry x="100" y="240" width="80" height="50" as="geometry" />
        </mxCell>
        <mxCell id="9vBNabVuWrEEJc_SQrMS-9" value="Light&lt;div&gt;Traffic&lt;/div&gt;" style="ellipse;whiteSpace=wrap;html=1;" vertex="1" parent="1">
          <mxGeometry x="260" y="240" width="80" height="50" as="geometry" />
        </mxCell>
        <mxCell id="9vBNabVuWrEEJc_SQrMS-21" style="rounded=0;orthogonalLoop=1;jettySize=auto;html=1;exitX=0.5;exitY=1;exitDx=0;exitDy=0;entryX=0.5;entryY=0;entryDx=0;entryDy=0;" edge="1" parent="1" source="9vBNabVuWrEEJc_SQrMS-10" target="9vBNabVuWrEEJc_SQrMS-20">
          <mxGeometry relative="1" as="geometry" />
        </mxCell>
        <mxCell id="9vBNabVuWrEEJc_SQrMS-10" value="Heavy&lt;div&gt;Traffic&lt;/div&gt;" style="ellipse;whiteSpace=wrap;html=1;" vertex="1" parent="1">
          <mxGeometry x="420" y="240" width="80" height="50" as="geometry" />
        </mxCell>
        <mxCell id="9vBNabVuWrEEJc_SQrMS-11" value="Light&lt;div&gt;Traffic&lt;/div&gt;" style="ellipse;whiteSpace=wrap;html=1;" vertex="1" parent="1">
          <mxGeometry x="610" y="240" width="80" height="50" as="geometry" />
        </mxCell>
        <mxCell id="9vBNabVuWrEEJc_SQrMS-16" value="P = 0.7" style="text;html=1;align=center;verticalAlign=middle;whiteSpace=wrap;rounded=0;" vertex="1" parent="1">
          <mxGeometry x="600" y="190" width="60" height="30" as="geometry" />
        </mxCell>
        <mxCell id="9vBNabVuWrEEJc_SQrMS-17" value="P = 0.3" style="text;html=1;align=center;verticalAlign=middle;whiteSpace=wrap;rounded=0;" vertex="1" parent="1">
          <mxGeometry x="450" y="180" width="60" height="30" as="geometry" />
        </mxCell>
        <mxCell id="9vBNabVuWrEEJc_SQrMS-18" value="P = 0.2" style="text;html=1;align=center;verticalAlign=middle;whiteSpace=wrap;rounded=0;" vertex="1" parent="1">
          <mxGeometry x="260" y="190" width="60" height="30" as="geometry" />
        </mxCell>
        <mxCell id="9vBNabVuWrEEJc_SQrMS-19" value="P = 0.8" style="text;html=1;align=center;verticalAlign=middle;whiteSpace=wrap;rounded=0;" vertex="1" parent="1">
          <mxGeometry x="120" y="190" width="60" height="30" as="geometry" />
        </mxCell>
        <mxCell id="9vBNabVuWrEEJc_SQrMS-20" value="Accident&lt;div&gt;(Yes)&lt;/div&gt;" style="ellipse;whiteSpace=wrap;html=1;" vertex="1" parent="1">
          <mxGeometry x="440" y="390" width="80" height="50" as="geometry" />
        </mxCell>
        <mxCell id="9vBNabVuWrEEJc_SQrMS-22" value="P = 0.4" style="text;html=1;align=center;verticalAlign=middle;whiteSpace=wrap;rounded=0;" vertex="1" parent="1">
          <mxGeometry x="470" y="330" width="60" height="30" as="geometry" />
        </mxCell>
        <mxCell id="9vBNabVuWrEEJc_SQrMS-24" value="Accident&lt;div&gt;(Yes)&lt;/div&gt;" style="ellipse;whiteSpace=wrap;html=1;" vertex="1" parent="1">
          <mxGeometry x="120" y="400" width="80" height="50" as="geometry" />
        </mxCell>
        <mxCell id="9vBNabVuWrEEJc_SQrMS-26" value="P = 0.9" style="text;html=1;align=center;verticalAlign=middle;whiteSpace=wrap;rounded=0;" vertex="1" parent="1">
          <mxGeometry x="140" y="330" width="60" height="30" as="geometry" />
        </mxCell>
      </root>
    </mxGraphModel>
  </diagram>
</mxfile>
